<svg xmlns="http://www.w3.org/2000/svg" xmlns:svg="http://www.w3.org/2000/svg" id="svg13076" width="100" height="100" version="1.1" viewBox="0 0 26.458 26.458"><g id="layer1"><path style="fill:none;fill-rule:evenodd;stroke:#fff;stroke-width:1.88;stroke-linecap:round;stroke-linejoin:round;stroke-miterlimit:3.2" id="path23636" d="m 1.984375,23.8125 c 1e-7,-3.96875 1e-7,-7.9375 1.3229167,-11.90625 H 7.2760416 C 8.5989584,15.875 8.5989584,19.84375 8.5989583,23.8125 H 1.984375"/><ellipse style="fill:none;fill-rule:evenodd;stroke:#fff;stroke-width:2.06726;stroke-linecap:round;stroke-linejoin:round;stroke-miterlimit:3.2" id="path23638" cx="5.292" cy="7.444" rx="3.806" ry="3.967"/><path style="fill:none;fill-rule:evenodd;stroke:#fff;stroke-width:1.88;stroke-linecap:round;stroke-linejoin:round;stroke-miterlimit:3.2" id="path23640" d="m 9.921875,23.8125 c 10e-8,-3.96875 10e-8,-7.9375 1.322917,-11.90625 h 3.96875 c 1.322916,3.96875 1.322916,7.9375 1.322916,11.90625 H 9.921875"/><ellipse style="fill:none;fill-rule:evenodd;stroke:#fff;stroke-width:2.06726;stroke-linecap:round;stroke-linejoin:round;stroke-miterlimit:3.2" id="ellipse23642" cx="13.229" cy="7.444" rx="3.806" ry="3.967"/><path style="fill:none;fill-rule:evenodd;stroke:#fff;stroke-width:1.88;stroke-linecap:round;stroke-linejoin:round;stroke-miterlimit:3.2" id="path23644" d="m 17.859375,23.8125 c 0,-3.96875 0,-7.9375 1.322917,-11.90625 h 3.96875 c 1.322916,3.96875 1.322916,7.9375 1.322916,11.90625 h -6.614583"/><ellipse style="fill:none;fill-rule:evenodd;stroke:#fff;stroke-width:2.06726;stroke-linecap:round;stroke-linejoin:round;stroke-miterlimit:3.2" id="ellipse23646" cx="21.167" cy="7.444" rx="3.806" ry="3.967"/></g></svg>